<svg width="8000" height="432.479" xmlns="http://www.w3.org/2000/svg">

 <g>
  <title>background</title>
  <rect fill="none" id="canvas_background" height="434.479" width="8002" y="-1" x="-1"/>
 </g>
 <g>
  <title>Layer 1</title>
  <path id="svg_1" fill="#FFFFFF" d="m423.979,351.412l-74.324,0c4.509,-100.656 70.27,-185.873 70.949,-186.741c2.542,-3.243 2.392,-7.841 -0.355,-10.911c-2.747,-3.07 -7.3,-3.729 -10.805,-1.563c-54.064,33.423 -85.2,87.677 -101.799,127.305c-3.023,7.217 -5.683,14.197 -8.018,20.826c1.685,-37.42 8.965,-87.176 32.1,-131.208c1.804,-3.433 1.056,-7.651 -1.819,-10.254c-2.875,-2.603 -7.145,-2.93 -10.383,-0.797c-16.894,11.135 -31.312,25.869 -43.16,44.037c4.018,-53.933 28.157,-125.942 28.453,-126.818c1.222,-3.615 -0.115,-7.602 -3.27,-9.749c-3.155,-2.147 -7.354,-1.928 -10.269,0.535c-21.835,18.454 -39.629,48.013 -52.887,87.854c-6.557,19.704 -11.163,39.404 -14.383,56.648c-14.295,-28.313 -33.35,-50.418 -56.917,-65.951c-3.238,-2.134 -7.51,-1.806 -10.383,0.797c-2.875,2.603 -3.623,6.821 -1.819,10.254c25.555,48.637 33.034,103.897 34.514,144.393c-2.786,-8.146 -6.041,-16.847 -9.83,-25.891c-17.712,-42.284 -50.93,-100.171 -108.594,-135.82c-3.504,-2.167 -8.057,-1.507 -10.805,1.563c-2.747,3.07 -2.896,7.668 -0.355,10.911c0.643,0.821 55.459,71.7 71.736,162.456c-4.219,-8.354 -9.097,-17.447 -14.612,-26.845c-29.218,-49.792 -60.771,-82.295 -93.783,-96.605c-3.503,-1.519 -7.586,-0.515 -9.987,2.45c-2.401,2.966 -2.531,7.169 -0.318,10.278c20.463,28.743 70.852,108.122 72.791,148.847l-77.147,0c-4.694,0 -8.5,3.806 -8.5,8.5s3.806,8.5 8.5,8.5l415.479,0c4.694,0 8.5,-3.806 8.5,-8.5s-3.806,-8.501 -8.5,-8.501zm-100.479,-65.757c10.902,-25.935 28.377,-58.502 54.944,-86.344c-2.677,4.885 -5.419,10.112 -8.169,15.648c-16.132,32.484 -35.336,81.939 -37.632,136.452l-29.747,0c2.666,-12.79 8.774,-37.614 20.604,-65.756zm-22.219,-88.676c-12.371,35.602 -16.936,71.122 -18.431,97.433c-1.447,25.46 -0.354,45.913 0.572,57.001l-28.843,0c0.468,-25.288 3.522,-59.631 14.213,-92.997c7.863,-24.54 18.739,-45.085 32.489,-61.437zm-24.566,-87.083c-9.824,36.266 -21.384,89.066 -16.874,123.658c-2.632,6.279 -5.047,12.837 -7.238,19.674c-2.455,7.66 -4.524,15.358 -6.272,22.989c-2.102,-9.98 -4.706,-20.108 -7.931,-30.175c-0.617,-1.927 -1.258,-3.825 -1.908,-5.711c3.833,-29.144 14.364,-87.962 40.223,-130.435zm-91.392,73.075c15.719,17.912 28.072,40.747 36.888,68.259c11.534,35.997 14.769,73.051 15.234,100.182l-32.07,0c0.999,-11.674 2.237,-33.81 0.663,-61.489c-1.639,-28.816 -6.722,-67.972 -20.715,-106.952zm-83.537,1.691c30.201,30.506 49.843,66.897 61.935,95.669c12.882,30.651 19.42,57.61 22.193,71.081l-33.082,0c-2.342,-58.396 -22.918,-111.412 -40.194,-146.198c-3.671,-7.392 -7.327,-14.261 -10.852,-20.552zm-35.375,71.091c-5.733,-10.194 -11.498,-19.803 -16.792,-28.305c41.287,36.923 70.299,99.04 80.835,123.964l-27.814,0c-0.901,-22.339 -13.051,-54.443 -36.229,-95.659z"/>
  <g id="svg_2"/>
  <g id="svg_3"/>
  <g id="svg_4"/>
  <g id="svg_5"/>
  <g id="svg_6"/>
  <g id="svg_7"/>
  <g id="svg_8"/>
  <g id="svg_9"/>
  <g id="svg_10"/>
  <g id="svg_11"/>
  <g id="svg_12"/>
  <g id="svg_13"/>
  <g id="svg_14"/>
  <g id="svg_15"/>
  <g id="svg_16"/>
  <rect id="svg_17" height="18" width="8000" y="350.739502" x="0" fill-opacity="null" stroke-opacity="null" stroke-width="null" stroke="null" fill="#FFFFFF"/>
 </g>
</svg>